<?xml version="1.0" encoding="utf-8"?>
<!-- Generator: Adobe Illustrator 16.0.0, SVG Export Plug-In . SVG Version: 6.00 Build 0)  -->
<!DOCTYPE svg PUBLIC "-//W3C//DTD SVG 1.1//EN" "http://www.w3.org/Graphics/SVG/1.1/DTD/svg11.dtd">
<svg version="1.1" id="Layer_1" xmlns="http://www.w3.org/2000/svg" xmlns:xlink="http://www.w3.org/1999/xlink" x="0px" y="0px"
	 width="25px" height="25px" viewBox="0 0 25 25" enable-background="new 0 0 25 25" xml:space="preserve">
<g>
	<circle fill="#495488" cx="12.5" cy="12.5" r="12.5"/>
	<g>
		<g>
			<g>
				<g>
					<path fill="#FFFFFF" d="M16.6,14.4c-0.3-0.3-0.6-0.5-1-0.5c-0.4,0-0.7,0.2-1,0.5l-1,0.9c-0.1,0-0.2-0.1-0.2-0.1
						c-0.1-0.1-0.2-0.1-0.3-0.2c-0.9-0.6-1.7-1.3-2.5-2.3c-0.4-0.5-0.6-0.9-0.8-1.3c0.2-0.2,0.5-0.5,0.7-0.7
						c0.1-0.1,0.2-0.2,0.3-0.3c0.6-0.6,0.6-1.5,0-2.1L9.9,7.7C9.9,7.6,9.8,7.5,9.7,7.4C9.5,7.2,9.3,7,9.1,6.8
						c-0.3-0.3-0.6-0.4-1-0.4c-0.4,0-0.7,0.2-1,0.4l0,0l-1,1C5.6,8.3,5.4,8.7,5.4,9.3c-0.1,0.9,0.2,1.7,0.4,2.2
						c0.5,1.3,1.2,2.5,2.3,3.8c1.3,1.6,2.9,2.8,4.7,3.7c0.7,0.3,1.6,0.7,2.7,0.8c0.1,0,0.1,0,0.2,0c0.7,0,1.3-0.2,1.7-0.7
						c0,0,0,0,0,0c0.2-0.2,0.3-0.4,0.5-0.5c0.1-0.1,0.3-0.3,0.4-0.4c0.3-0.3,0.5-0.7,0.5-1c0-0.4-0.2-0.7-0.5-1L16.6,14.4z
						 M17.7,17.6c-0.1,0.1-0.2,0.2-0.4,0.4c-0.2,0.2-0.4,0.4-0.6,0.6c-0.3,0.3-0.7,0.5-1.1,0.5c0,0-0.1,0-0.1,0
						c-0.9-0.1-1.7-0.4-2.4-0.7c-1.7-0.8-3.2-2-4.5-3.5c-1-1.2-1.7-2.4-2.2-3.6c-0.3-0.8-0.4-1.3-0.3-1.9c0-0.4,0.2-0.6,0.4-0.9l1-1
						c0.1-0.1,0.3-0.2,0.5-0.2c0.2,0,0.3,0.1,0.4,0.2c0,0,0,0,0,0C8.7,7.6,8.9,7.8,9.1,8c0.1,0.1,0.2,0.2,0.3,0.3l0.8,0.8
						c0.3,0.3,0.3,0.6,0,0.9c-0.1,0.1-0.2,0.2-0.3,0.3c-0.3,0.3-0.5,0.5-0.8,0.7c0,0,0,0,0,0C8.9,11.3,9,11.5,9,11.7c0,0,0,0,0,0
						c0.2,0.5,0.5,1,1,1.6l0,0c0.8,1,1.7,1.8,2.7,2.4c0.1,0.1,0.2,0.1,0.4,0.2c0.1,0.1,0.2,0.1,0.3,0.2c0,0,0,0,0,0
						c0.1,0.1,0.2,0.1,0.3,0.1c0.2,0,0.4-0.2,0.5-0.2l1-1c0.1-0.1,0.3-0.2,0.5-0.2c0.2,0,0.3,0.1,0.4,0.2l0,0l1.7,1.7
						C18,17,18,17.3,17.7,17.6z"/>
				</g>
			</g>
			<g>
				<path fill="#FFFFFF" d="M13.1,9c0.8,0.1,1.5,0.5,2.1,1.1c0.6,0.6,0.9,1.3,1.1,2.1c0,0.2,0.2,0.3,0.4,0.3c0,0,0,0,0.1,0
					c0.2,0,0.4-0.2,0.3-0.5c-0.2-1-0.6-1.8-1.3-2.5c-0.7-0.7-1.6-1.1-2.5-1.3c-0.2,0-0.4,0.1-0.5,0.3C12.7,8.7,12.9,8.9,13.1,9z"/>
			</g>
			<g>
				<path fill="#FFFFFF" d="M19.6,11.9c-0.3-1.6-1-3-2.1-4.1c-1.1-1.1-2.6-1.9-4.1-2.2c-0.2,0-0.4,0.1-0.5,0.3
					c0,0.2,0.1,0.4,0.3,0.5c1.4,0.2,2.7,0.9,3.7,1.9c1,1,1.7,2.3,1.9,3.7c0,0.2,0.2,0.3,0.4,0.3c0,0,0,0,0.1,0
					C19.5,12.3,19.7,12.1,19.6,11.9z"/>
			</g>
		</g>
	</g>
</g>
</svg>
