<?xml version="1.0" encoding="utf-8"?>
<!-- Generator: Adobe Illustrator 16.0.0, SVG Export Plug-In . SVG Version: 6.00 Build 0)  -->
<!DOCTYPE svg PUBLIC "-//W3C//DTD SVG 1.1//EN" "http://www.w3.org/Graphics/SVG/1.1/DTD/svg11.dtd">
<svg version="1.1" id="Layer_1" xmlns="http://www.w3.org/2000/svg" xmlns:xlink="http://www.w3.org/1999/xlink" x="0px" y="0px"
	 width="25px" height="25px" viewBox="0 0 25 25" enable-background="new 0 0 25 25" xml:space="preserve">
<g>
	<circle fill="#495488" cx="12.5" cy="12.5" r="12.5"/>
	<g>
		<g>
			<path fill="#FFFFFF" d="M18.3,19.7l-2-4.3c0-0.1-0.1-0.2-0.2-0.2l-1-0.5l1.8-3c0,0,0,0,0,0c0.4-0.7,0.5-1.4,0.5-2.2
				c0-1.3-0.5-2.5-1.4-3.4c-0.9-0.9-2.2-1.4-3.5-1.4c-1.3,0-2.5,0.5-3.4,1.4C8.2,7.1,7.7,8.3,7.7,9.5c0,0.8,0.2,1.5,0.5,2.2
				c0,0,0,0,0,0l1.8,3l-1,0.5c-0.1,0-0.2,0.1-0.2,0.2l-2,4.3c-0.1,0.1,0,0.3,0.1,0.4s0.3,0.1,0.4,0.1l2.6-1.1l2.6,1.1
				c0.1,0,0.2,0,0.3,0l2.6-1.1l2.6,1.1c0.1,0,0.1,0,0.2,0c0.1,0,0.2,0,0.3-0.1C18.3,20,18.4,19.9,18.3,19.7z M8.9,11.4
				c-0.3-0.6-0.4-1.2-0.4-1.9c0-2.2,1.8-4,4-4c1.1,0,2.1,0.4,2.9,1.2c0.8,0.8,1.2,1.8,1.2,2.9c0,0.6-0.1,1.3-0.4,1.8l-3.3,5.5
				c-0.1,0.2-0.3,0.2-0.3,0.2c-0.1,0-0.2,0-0.3-0.2L8.9,11.4z M15.4,18.3c-0.1,0-0.2,0-0.3,0l-2.6,1.1l-2.6-1.1c-0.1,0-0.2,0-0.3,0
				l-1.8,0.8l1.5-3.3l1-0.4l1.1,1.9c0.2,0.4,0.6,0.6,1,0.6c0.4,0,0.8-0.2,1-0.6l1.1-1.9l1,0.4l1.5,3.3L15.4,18.3z"/>
			<path fill="#FFFFFF" d="M13.9,10.2c0-0.7-0.6-1.4-1.4-1.4c-0.7,0-1.4,0.6-1.4,1.4c0,0.7,0.6,1.4,1.4,1.4
				C13.2,11.6,13.9,11,13.9,10.2z M11.7,10.2c0-0.4,0.3-0.8,0.8-0.8c0.4,0,0.8,0.3,0.8,0.8S12.9,11,12.5,11
				C12.1,11,11.7,10.7,11.7,10.2z"/>
		</g>
	</g>
</g>
</svg>
