<?xml version="1.0" encoding="utf-8"?>
<!-- Generator: Adobe Illustrator 16.0.0, SVG Export Plug-In . SVG Version: 6.00 Build 0)  -->
<!DOCTYPE svg PUBLIC "-//W3C//DTD SVG 1.1//EN" "http://www.w3.org/Graphics/SVG/1.1/DTD/svg11.dtd">
<svg version="1.1" id="Layer_1" xmlns="http://www.w3.org/2000/svg" xmlns:xlink="http://www.w3.org/1999/xlink" x="0px" y="0px"
	 width="230px" height="50px" viewBox="0 0 230 50" enable-background="new 0 0 230 50" xml:space="preserve">
<g>
	<g>
		<path fill="#495488" d="M38.1,24.7H23.6l-2.9,7.1h-5.3L28.6,0.6h4.6l13.1,31.1H41L38.1,24.7z M36.3,20.4l-4-9.7
			c-0.7-1.7-1.4-4-1.5-4h0c0,0-0.8,2.4-1.5,4l-4,9.7H36.3z"/>
		<path fill="#495488" d="M67.8,31.7l-6.6-11.2c-0.3,0-0.6,0-1,0h-5.2v11.1h-4.9V0.6h10.2c7.5,0,11.9,4,11.9,10.1
			c0,4.4-2.3,7.5-6.2,9l7.4,12H67.8z M60.9,16.3c4.2,0,6.3-2.5,6.3-5.6c0-3.2-2.2-5.5-6.3-5.5h-5.8v11H60.9z"/>
		<path fill="#495488" d="M101,9.5c-1.9-2.9-5.4-4.7-9.1-4.7c-6.4,0-11.1,4.6-11.1,11.3c0,6.8,4.8,11.3,11.1,11.3
			c4.2,0,7.9-2.2,9.7-5.5l4.9,1.3c-2.6,5.5-8.1,9.1-14.6,9.1c-8.9,0-16.1-6.8-16.1-16.2C75.8,6.8,83,0,91.9,0
			C98,0,103.2,3.2,106,8.2L101,9.5z"/>
		<path fill="#495488" d="M136.2,0.6v31.1h-4.9V18.1h-15.2v13.6h-4.9V0.6h4.9v12.9h15.2V0.6H136.2z"/>
		<path fill="#495488" d="M160.9,9.2c-0.7-3.8-3.9-6-7.8-6c-4.1,0-7,2-7,5.1c0,3.4,4.3,4.5,8.4,5.7c4.3,1.3,10.3,3.2,10.3,9.3
			c0,5.2-4.5,9.1-11.4,9.1c-6.7,0-10.9-3.9-11.9-9.2l3.5-0.9c0.4,3.6,3.4,6.8,8.5,6.8c4.6,0,7.4-2.4,7.4-5.7c0-4.5-5.4-5.5-9.8-6.8
			c-3.6-1.1-8.8-2.7-8.8-8.1c0-4.8,4.6-8.4,10.8-8.4c5.6,0,10.1,3.3,11.1,8.3L160.9,9.2z"/>
		<path fill="#495488" d="M170.7,31.7V0.6h3.6v31.1H170.7z"/>
		<path fill="#495488" d="M203.9,0.6V4h-10.4v27.7h-3.6V4h-10.4V0.6H203.9z"/>
		<path fill="#495488" d="M230,28.3v3.4h-21V0.6h20.7V4h-17.1v9.6h13.7v3.2h-13.7v11.4H230z"/>
		<g>
			<path fill="#495488" d="M23.4,47.3h-5l-1,2.4h-1.8l4.5-10.7h1.6l4.5,10.7h-1.8L23.4,47.3z M22.8,45.9l-1.4-3.4
				c-0.2-0.6-0.5-1.4-0.5-1.4h0c0,0-0.3,0.8-0.5,1.4L19,45.9H22.8z"/>
			<path fill="#495488" d="M35,49.8l-2.3-3.8c-0.1,0-0.2,0-0.3,0h-1.8v3.8h-1.7V39.1h3.5c2.6,0,4.1,1.4,4.1,3.5
				c0,1.5-0.8,2.6-2.1,3.1l2.5,4.1H35z M32.6,44.5c1.5,0,2.2-0.9,2.2-1.9c0-1.1-0.8-1.9-2.2-1.9h-2v3.8H32.6z"/>
			<path fill="#495488" d="M48.2,42.1c-0.6-1-1.9-1.6-3.1-1.6c-2.2,0-3.8,1.6-3.8,3.9c0,2.3,1.7,3.9,3.8,3.9c1.4,0,2.7-0.8,3.3-1.9
				l1.7,0.5c-0.9,1.9-2.8,3.1-5,3.1c-3.1,0-5.6-2.3-5.6-5.6c0-3.2,2.5-5.6,5.6-5.6c2.1,0,3.9,1.1,4.9,2.8L48.2,42.1z"/>
			<path fill="#495488" d="M61.3,39.1v10.7h-1.7v-4.7h-5.2v4.7h-1.7V39.1h1.7v4.4h5.2v-4.4H61.3z"/>
			<path fill="#495488" d="M63.9,49.8V39.1h1.7v10.7H63.9z"/>
			<path fill="#495488" d="M76.8,39.1v1.6h-3.5v9.1h-1.7v-9.1h-3.5v-1.6H76.8z"/>
			<path fill="#495488" d="M86.9,48.2v1.6h-7.5V39.1h7.4v1.6h-5.7v2.8h4.5v1.5h-4.5v3.2H86.9z"/>
			<path fill="#495488" d="M98.2,42.1c-0.6-1-1.9-1.6-3.1-1.6c-2.2,0-3.8,1.6-3.8,3.9c0,2.3,1.7,3.9,3.8,3.9c1.4,0,2.7-0.8,3.3-1.9
				l1.7,0.5c-0.9,1.9-2.8,3.1-5,3.1c-3.1,0-5.6-2.3-5.6-5.6c0-3.2,2.5-5.6,5.6-5.6c2.1,0,3.9,1.1,4.9,2.8L98.2,42.1z"/>
			<path fill="#495488" d="M111.3,39.1v1.6h-3.5v9.1h-1.7v-9.1h-3.5v-1.6H111.3z"/>
			<path fill="#495488" d="M122.9,39.1v6.2c0,3.1-1.7,4.8-4.5,4.8c-2.8,0-4.5-1.7-4.5-4.8v-6.2h1.7v6.2c0,2.2,0.9,3.2,2.8,3.2
				c1.9,0,2.8-1,2.8-3.2v-6.2H122.9z"/>
			<path fill="#495488" d="M131.7,49.8l-2.3-3.8c-0.1,0-0.2,0-0.3,0h-1.8v3.8h-1.7V39.1h3.5c2.6,0,4.1,1.4,4.1,3.5
				c0,1.5-0.8,2.6-2.1,3.1l2.5,4.1H131.7z M129.2,44.5c1.5,0,2.2-0.9,2.2-1.9c0-1.1-0.8-1.9-2.2-1.9h-2v3.8H129.2z"/>
			<path fill="#495488" d="M143.6,48.2v1.6h-7.5V39.1h7.4v1.6h-5.7v2.8h4.5v1.5h-4.5v3.2H143.6z"/>
			<path fill="#495488" d="M169.8,39.1l-3.5,10.7h-1.5l-1.7-5.4c-0.4-1.4-0.5-2-0.5-2h0c0,0-0.1,0.6-0.5,2l-1.7,5.4h-1.5l-3.5-10.7
				h1.8l2,6.5c0.3,0.9,0.4,1.6,0.5,1.6h0c0,0,0.2-0.7,0.5-1.6l1.8-5.2h1.5l1.8,5.2c0.3,0.9,0.5,1.6,0.5,1.6h0c0,0,0.2-0.7,0.4-1.6
				l2.1-6.5H169.8z"/>
			<path fill="#495488" d="M180.3,48.2v1.6h-7.5V39.1h7.4v1.6h-5.7v2.8h4.5v1.5h-4.5v3.2H180.3z"/>
			<path fill="#495488" d="M187.7,39.1c1.9,0,3.2,1.2,3.2,2.7c0,1.1-0.8,2-1.6,2.2v0c1,0.2,2.3,1.3,2.3,2.6c0,1.8-1.3,3.2-3.6,3.2
				h-4.4V39.1H187.7z M187.4,43.4c1.1,0,1.8-0.7,1.8-1.5c0-0.9-0.7-1.5-1.8-1.5h-2.2v2.9H187.4z M187.7,48.3c1.2,0,2-0.7,2-1.8
				c0-1.1-0.9-1.8-2.1-1.8h-2.5v3.6H187.7z"/>
			<path fill="#495488" d="M201.1,42.2c-0.2-1.2-1.3-1.9-2.4-1.9c-1.2,0-2,0.6-2,1.4c0,1,1.3,1.4,2.7,1.8c1.5,0.5,3.4,1.2,3.4,3.3
				c0,1.9-1.6,3.2-4,3.2c-2.3,0-3.8-1.3-4.2-3.2l1.6-0.4c0.2,1.1,1.1,2.1,2.7,2.1c1.4,0,2.2-0.7,2.2-1.6c0-1.3-1.7-1.6-3.2-2.1
				c-1.3-0.4-3-1-3-2.9c0-1.7,1.6-3,3.8-3c2,0,3.5,1.2,3.9,2.9L201.1,42.2z"/>
			<path fill="#495488" d="M206,49.8V39.1h1.7v10.7H206z"/>
			<path fill="#495488" d="M219.4,39.1v1.6h-3.5v9.1h-1.7v-9.1h-3.5v-1.6H219.4z"/>
			<path fill="#495488" d="M230,48.2v1.6h-7.5V39.1h7.4v1.6h-5.7v2.8h4.5v1.5h-4.5v3.2H230z"/>
		</g>
	</g>
	<g>
		<rect fill="#495488" width="3.3" height="49.8"/>
	</g>
</g>
</svg>
