<?xml version="1.0" encoding="utf-8"?>
<!-- Generator: Adobe Illustrator 16.0.0, SVG Export Plug-In . SVG Version: 6.00 Build 0)  -->
<!DOCTYPE svg PUBLIC "-//W3C//DTD SVG 1.1//EN" "http://www.w3.org/Graphics/SVG/1.1/DTD/svg11.dtd">
<svg version="1.1" id="Layer_1" xmlns="http://www.w3.org/2000/svg" xmlns:xlink="http://www.w3.org/1999/xlink" x="0px" y="0px"
	 width="25px" height="25px" viewBox="0 0 25 25" enable-background="new 0 0 25 25" xml:space="preserve">
<g>
	<circle fill="#D42428" cx="12.5" cy="12.5" r="12.5"/>
	<path fill="#FFFFFF" d="M17,15.4h-0.8l0-0.5c0-0.2,0.2-0.4,0.4-0.4h0.1c0.2,0,0.4,0.2,0.4,0.4L17,15.4z M13.9,14.4
		c-0.2,0-0.4,0.1-0.4,0.3V17c0,0.2,0.2,0.3,0.4,0.3s0.4-0.1,0.4-0.3v-2.3C14.3,14.5,14.2,14.4,13.9,14.4z M18.9,13.1v4.3
		c0,1-0.9,1.9-2,1.9H8.6c-1.1,0-2-0.9-2-1.9v-4.3c0-1,0.9-1.9,2-1.9h8.2C18,11.2,18.9,12.1,18.9,13.1z M9.2,17.9v-4.6l1,0v-0.7
		l-2.7,0v0.7l0.8,0v4.6L9.2,17.9L9.2,17.9z M12.2,14h-0.8v2.4c0,0.4,0,0.5,0,0.6c-0.1,0.2-0.4,0.4-0.5,0c0-0.1,0-0.3,0-0.6l0-2.5H10
		l0,2.4c0,0.4,0,0.6,0,0.8c0,0.2,0,0.5,0.2,0.6c0.4,0.3,1.1,0,1.3-0.4l0,0.5l0.7,0V14L12.2,14z M15,16.8l0-2c0-0.8-0.6-1.2-1.4-0.6
		l0-1.5l-0.8,0l0,5.2l0.7,0l0.1-0.3C14.4,18.4,15,17.8,15,16.8z M17.6,16.6l-0.6,0c0,0,0,0.1,0,0.1V17c0,0.2-0.2,0.3-0.3,0.3h-0.1
		c-0.2,0-0.3-0.2-0.3-0.3v0v-0.4v-0.5h1.5v-0.5c0-0.4,0-0.8,0-1c-0.1-0.7-1.1-0.8-1.6-0.5c-0.2,0.1-0.3,0.3-0.4,0.5
		c-0.1,0.2-0.1,0.5-0.1,0.9v1.2C15.5,18.6,17.9,18.3,17.6,16.6z M14.3,10c0,0.1,0.1,0.2,0.2,0.3c0.1,0.1,0.2,0.1,0.3,0.1
		c0.1,0,0.2,0,0.3-0.1c0.1-0.1,0.2-0.2,0.2-0.3l0,0.3h0.9v-4h-0.7v3.1c0,0.2-0.1,0.3-0.3,0.3c-0.2,0-0.3-0.1-0.3-0.3V6.2h-0.8V9
		c0,0.3,0,0.6,0,0.7C14.3,9.8,14.3,9.9,14.3,10z M11.5,7.7c0-0.4,0-0.7,0.1-0.9s0.2-0.4,0.3-0.5c0.2-0.1,0.4-0.2,0.6-0.2
		c0.2,0,0.4,0,0.6,0.1c0.2,0.1,0.3,0.2,0.4,0.3c0.1,0.1,0.1,0.3,0.2,0.4c0,0.1,0,0.4,0,0.7v1c0,0.4,0,0.6,0,0.8s-0.1,0.3-0.2,0.5
		c-0.1,0.2-0.2,0.3-0.4,0.3c-0.2,0.1-0.3,0.1-0.5,0.1c-0.2,0-0.4,0-0.5-0.1c-0.2-0.1-0.3-0.2-0.3-0.3c-0.1-0.1-0.1-0.3-0.2-0.5
		s-0.1-0.4-0.1-0.8V7.7L11.5,7.7z M12.2,9.3c0,0.2,0.2,0.4,0.4,0.4S13,9.5,13,9.3V7.2c0-0.2-0.2-0.4-0.4-0.4s-0.4,0.2-0.4,0.4V9.3z
		 M9.6,10.4h0.9V7.3l1.1-2.7h-1l-0.6,2l-0.6-2h-1l1.1,2.7L9.6,10.4z"/>
</g>
</svg>
