<?xml version="1.0" encoding="utf-8"?>
<!-- Generator: Adobe Illustrator 16.0.0, SVG Export Plug-In . SVG Version: 6.00 Build 0)  -->
<!DOCTYPE svg PUBLIC "-//W3C//DTD SVG 1.1//EN" "http://www.w3.org/Graphics/SVG/1.1/DTD/svg11.dtd">
<svg version="1.1" id="Layer_1" xmlns="http://www.w3.org/2000/svg" xmlns:xlink="http://www.w3.org/1999/xlink" x="0px" y="0px"
	 width="25px" height="25px" viewBox="0 0 25 25" enable-background="new 0 0 25 25" xml:space="preserve">
<g>
	<circle fill="#495488" cx="12.5" cy="12.5" r="12.5"/>
	<g>
		<g>
			<g>
				<g>
					<path fill="#FFFFFF" d="M20,9.4L18,8.1V3.8c0-0.1-0.1-0.3-0.3-0.3H7.2c-0.1,0-0.3,0.1-0.3,0.3v4.3L5,9.4
						c-0.1,0-0.1,0.1-0.1,0.2v7.8c0,0.1,0.1,0.3,0.3,0.3h14.7c0.1,0,0.3-0.1,0.3-0.3V9.6C20.1,9.6,20.1,9.5,20,9.4z M18,8.7l1,0.6
						h-1V8.7z M18,9.9h0.8L18,10.3V9.9z M7.5,4.1h10.1v6.5l-4.2,2.2l-0.7-0.5c-0.1-0.1-0.2-0.1-0.3,0l-0.7,0.5l-4.2-2.2V4.1z
						 M6.9,8.7v0.6H6L6.9,8.7z M6.9,9.9v0.4L6.2,9.9H6.9z M5.4,10.1l5.8,3.1L5.4,17V10.1z M6,17.2l6.5-4.3l6.5,4.3H6z M19.6,17
						l-5.8-3.8l5.8-3.1V17z"/>
				</g>
			</g>
			<g>
				<g>
					<path fill="#FFFFFF" d="M14.5,10.2c0.1,0,0.3-0.1,0.3-0.3c0-0.1-0.1-0.3-0.3-0.3h-2c-1,0-1.8-0.8-1.8-1.8V7.9
						c0-1,0.8-1.8,1.8-1.8c1,0,1.8,0.8,1.8,1.8v0.2c0,0.2-0.2,0.4-0.4,0.4s-0.4-0.2-0.4-0.4V7.7c0-0.6-0.5-1.1-1.1-1.1
						c-0.6,0-1.1,0.5-1.1,1.1c0,0.6,0.5,1.1,1.1,1.1c0.3,0,0.5-0.1,0.7-0.3C13.3,8.8,13.6,9,13.9,9c0.5,0,0.9-0.4,0.9-0.9V7.9
						c0-1.2-1-2.3-2.3-2.3c-1.2,0-2.3,1-2.3,2.3V8c0,1.2,1,2.3,2.3,2.3H14.5z M12.4,8.3c-0.3,0-0.6-0.3-0.6-0.6s0.3-0.6,0.6-0.6
						S13,7.4,13,7.7S12.7,8.3,12.4,8.3z"/>
				</g>
			</g>
		</g>
	</g>
</g>
</svg>
